<svg width="20" height="20" viewBox="0 0 20 20" fill="none" xmlns="http://www.w3.org/2000/svg">
    <path d="M3.3394 7.04757L9.70879 9.93694C9.89473 10.0214 10.105 10.0214 10.2909 9.93694L16.6603 7.04757C17.1129 6.84222 17.1129 6.15836 16.6603 5.95301L10.2912 3.06337C10.1999 3.02161 10.1006 3 10.0001 3C9.89969 3 9.80042 3.02161 9.70907 3.06337L3.3394 5.95274C2.88687 6.15809 2.88687 6.84222 3.3394 7.04757ZM16.6606 9.46144L15.0722 8.74149L10.6524 10.7449C10.4457 10.8387 10.2261 10.8863 10 10.8863C9.77387 10.8863 9.55457 10.8387 9.34758 10.7449L4.92806 8.74149L3.3394 9.46144C2.88687 9.66651 2.88687 10.3501 3.3394 10.5552L9.70879 13.4424C9.89473 13.5266 10.105 13.5266 10.2909 13.4424L16.6606 10.5552C17.1131 10.3501 17.1131 9.66651 16.6606 9.46144ZM16.6606 12.9559L15.0782 12.2387L10.6524 14.2449C10.4457 14.3387 10.2261 14.3862 10 14.3862C9.77387 14.3862 9.55457 14.3387 9.34758 14.2449L4.92204 12.2387L3.3394 12.9559C2.88687 13.161 2.88687 13.8446 3.3394 14.0497L9.70879 16.9368C9.89473 17.0211 10.105 17.0211 10.2909 16.9368L16.6606 14.0497C17.1131 13.8446 17.1131 13.161 16.6606 12.9559Z" fill="white"/>
</svg>
